<?xml version="1.0" encoding="UTF-8"?>
<svg version="1.1" xmlns="http://www.w3.org/2000/svg" width="100" height="100">
<path d="M0 0 C22.44 0 44.88 0 68 0 C68 27.72 68 55.44 68 84 C45.56 84 23.12 84 0 84 C0 56.28 0 28.56 0 0 Z M14 13 C14 15.64 14 18.28 14 21 C27.2 21 40.4 21 54 21 C54 18.36 54 15.72 54 13 C40.8 13 27.6 13 14 13 Z M14 30 C14 32.31 14 34.62 14 37 C16.31 37 18.62 37 21 37 C21 34.69 21 32.38 21 30 C18.69 30 16.38 30 14 30 Z M30 30 C30 32.31 30 34.62 30 37 C37.92 37 45.84 37 54 37 C54 34.69 54 32.38 54 30 C46.08 30 38.16 30 30 30 Z M14 47 C14 49.31 14 51.62 14 54 C16.31 54 18.62 54 21 54 C21 51.69 21 49.38 21 47 C18.69 47 16.38 47 14 47 Z M30 47 C30 49.31 30 51.62 30 54 C37.92 54 45.84 54 54 54 C54 51.69 54 49.38 54 47 C46.08 47 38.16 47 30 47 Z M14 63 C14 65.64 14 68.28 14 71 C16.31 71 18.62 71 21 71 C21 68.36 21 65.72 21 63 C18.69 63 16.38 63 14 63 Z M30 63 C30 65.64 30 68.28 30 71 C37.92 71 45.84 71 54 71 C54 68.36 54 65.72 54 63 C46.08 63 38.16 63 30 63 Z " fill="#FFFFFF" transform="translate(16,8)"/>
</svg>
