<?xml version="1.0" encoding="UTF-8"?>
<svg version="1.1" xmlns="http://www.w3.org/2000/svg" width="100" height="100">
<path d="M0 0 C1.32 0.33 2.64 0.66 4 1 C4 4.96 4 8.92 4 13 C15.22 13 26.44 13 38 13 C38 9.04 38 5.08 38 1 C39.32 0.67 40.64 0.34 42 0 C43 1 43 1 43.09765625 3.72265625 C43.08605469 4.82480469 43.07445313 5.92695313 43.0625 7.0625 C43.05347656 8.16722656 43.04445313 9.27195312 43.03515625 10.41015625 C43.02355469 11.26480469 43.01195313 12.11945312 43 13 C43.70125 12.94199219 44.4025 12.88398438 45.125 12.82421875 C52.11925799 12.49161137 56.7194564 13.230075 62 18 C66.13863161 23.1998192 67.11159978 27.051469 67.17700195 33.55957031 C67.19625481 35.23215912 67.19625481 35.23215912 67.21589661 36.9385376 C67.22328354 38.13960144 67.23067047 39.34066528 67.23828125 40.578125 C67.246353 41.81866638 67.25442474 43.05920776 67.26274109 44.33734131 C67.27657084 46.96332404 67.28729795 49.58932467 67.29516602 52.21533203 C67.30401923 54.89818072 67.32488039 57.58051032 67.35668945 60.26318359 C67.39938478 64.13915601 67.41553884 68.01444654 67.42578125 71.890625 C67.44328934 73.08359192 67.46079742 74.27655884 67.47883606 75.50567627 C67.45944867 82.97859897 66.85929469 88.75399309 61.62324524 94.51470947 C56.67592947 99.00648866 51.46379808 100.24542271 44.93798828 100.2746582 C43.76301788 100.28419022 42.58804749 100.29372223 41.37747192 100.30354309 C40.12110931 100.30263168 38.8647467 100.30172028 37.5703125 100.30078125 C36.26601288 100.30506638 34.96171326 100.3093515 33.6178894 100.31376648 C30.8625684 100.32120636 28.10737558 100.32095403 25.35205078 100.31567383 C21.83958316 100.30988639 18.32764409 100.32680284 14.81526375 100.3500185 C11.4419256 100.36838706 8.06870024 100.36456867 4.6953125 100.36328125 C3.44299835 100.372491 2.1906842 100.38170074 0.90042114 100.39118958 C-6.45793209 100.35238942 -13.07192323 100.20009343 -19.0234375 95.3515625 C-19.69246094 94.49691406 -19.69246094 94.49691406 -20.375 93.625 C-21.06722656 92.77808594 -21.06722656 92.77808594 -21.7734375 91.9140625 C-24.41553777 87.79103979 -25.25171522 84.19380034 -25.2746582 79.3269043 C-25.28419022 78.21192062 -25.29372223 77.09693695 -25.30354309 75.94816589 C-25.30263168 74.75226334 -25.30172028 73.55636078 -25.30078125 72.32421875 C-25.30506638 71.08509232 -25.3093515 69.84596588 -25.31376648 68.56929016 C-25.32097319 65.27944787 -25.31789108 61.98978887 -25.31219482 58.69995117 C-25.31249904 56.69381378 -25.3225227 54.6879729 -25.33618164 52.68188477 C-25.36074523 48.81252282 -25.36483434 44.94364913 -25.36328125 41.07421875 C-25.372491 39.88438889 -25.38170074 38.69455902 -25.39118958 37.46867371 C-25.31456081 23.63541571 -25.31456081 23.63541571 -20.61885071 18.4851532 C-15.93003153 14.38741844 -12.43694655 12.72769175 -6.25 12.875 C-5.26515625 12.89304687 -4.2803125 12.91109375 -3.265625 12.9296875 C-2.14414062 12.96449219 -2.14414062 12.96449219 -1 13 C-1.01160156 12.14535156 -1.02320312 11.29070313 -1.03515625 10.41015625 C-1.04417969 9.30542969 -1.05320312 8.20070313 -1.0625 7.0625 C-1.07410156 5.96035156 -1.08570312 4.85820312 -1.09765625 3.72265625 C-1 1 -1 1 0 0 Z M-16.375 23 C-19.10628812 26.36158538 -19.13537536 29.30066632 -19.17700195 33.4777832 C-19.18983719 34.59937332 -19.20267242 35.72096344 -19.21589661 36.87654114 C-19.22328354 38.08904037 -19.23067047 39.30153961 -19.23828125 40.55078125 C-19.246353 41.79748093 -19.25442474 43.0441806 -19.26274109 44.32865906 C-19.27658108 46.96906246 -19.28759777 49.60934104 -19.29516602 52.24975586 C-19.30402761 54.95311002 -19.32490559 57.65595043 -19.35668945 60.35913086 C-19.39928762 64.25650583 -19.41552517 68.1532026 -19.42578125 72.05078125 C-19.44328934 73.25720779 -19.46079742 74.46363434 -19.47883606 75.70661926 C-19.51336236 84.1220543 -19.51336236 84.1220543 -15 91 C-10.81355397 93.45862794 -7.74447823 94.37702063 -2.90625 94.38818359 C-1.13411133 94.40236832 -1.13411133 94.40236832 0.67382812 94.4168396 C1.93646484 94.41076691 3.19910156 94.40469421 4.5 94.3984375 C5.80904297 94.40130768 7.11808594 94.40417786 8.46679688 94.40713501 C11.23057744 94.4115444 13.99406603 94.40517251 16.7578125 94.39111328 C20.28844446 94.3740217 23.81839213 94.38387041 27.34899902 94.40183067 C30.73271988 94.4153195 34.11625974 94.40585661 37.5 94.3984375 C39.39395508 94.40754654 39.39395508 94.40754654 41.32617188 94.4168396 C42.50759766 94.40738312 43.68902344 94.39792664 44.90625 94.38818359 C46.45795898 94.38460342 46.45795898 94.38460342 48.04101562 94.38095093 C52.76491386 93.77277826 56.02550728 91.99052958 59.34399414 88.61743164 C61.83731037 83.1709527 61.5515221 78.0426354 61.49609375 72.12109375 C61.4982766 70.25385399 61.4982766 70.25385399 61.50050354 68.34889221 C61.49842291 65.05109758 61.47742606 61.75407356 61.44952393 58.4564209 C61.43750098 56.43766427 61.43913842 54.41941021 61.44604492 52.40063477 C61.45863645 48.51555582 61.44996595 44.63114848 61.43359375 40.74609375 C61.43652939 39.54391708 61.43946503 38.34174042 61.44248962 37.10313416 C61.42980545 35.9816951 61.41712128 34.86025604 61.40405273 33.70483398 C61.39594826 32.2297361 61.39594826 32.2297361 61.38768005 30.72483826 C60.75977604 26.31156796 58.78758342 23.72700008 55.5625 20.75 C51.5882333 18.03586664 48.26590735 17.87247898 43.51635742 17.83886719 C41.86895821 17.82445587 41.86895821 17.82445587 40.1882782 17.80975342 C39.00595108 17.80550354 37.82362396 17.80125366 36.60546875 17.796875 C34.77439323 17.78832489 34.77439323 17.78832489 32.90632629 17.77960205 C30.32322048 17.77015648 27.74010263 17.76361983 25.15698242 17.75976562 C21.21316418 17.75006314 17.26986776 17.71903577 13.32617188 17.6875 C10.81510726 17.6809694 8.30403892 17.67571915 5.79296875 17.671875 C4.61671432 17.6595282 3.4404599 17.6471814 2.2285614 17.63446045 C-5.18988964 17.6545589 -10.52781729 18.07605667 -16.375 23 Z " fill="#FFFFFF" transform="translate(29,0)"/>
<path d="M0 0 C0.95486298 0.00444122 1.90972595 0.00888245 2.89352417 0.01345825 C4.51497849 0.01368484 4.51497849 0.01368484 6.16918945 0.01391602 C7.92548172 0.02939987 7.92548172 0.02939987 9.71725464 0.04519653 C11.51088943 0.04944138 11.51088943 0.04944138 13.34075928 0.05377197 C17.17208733 0.06499599 21.00318436 0.09010472 24.83444214 0.11550903 C27.42688669 0.12553596 30.01933489 0.1346623 32.61178589 0.14285278 C38.97775056 0.16494257 45.34357985 0.19844197 51.70944214 0.24050903 C52.77194214 2.11550903 52.77194214 2.11550903 53.70944214 4.24050903 C53.37944214 4.90050903 53.04944214 5.56050903 52.70944214 6.24050903 C34.22944214 6.24050903 15.74944214 6.24050903 -3.29055786 6.24050903 C-3.62055786 4.92050903 -3.95055786 3.60050903 -4.29055786 2.24050903 C-2.29055786 0.24050903 -2.29055786 0.24050903 0 0 Z " fill="#FFFFFF" transform="translate(25.290557861328125,52.759490966796875)"/>
<path d="M0 0 C18.48 0 36.96 0 56 0 C56.495 1.98 56.495 1.98 57 4 C56 5 56 5 53.75376892 5.12025452 C52.76115555 5.11803391 51.76854218 5.11581329 50.74584961 5.11352539 C49.62476303 5.11344986 48.50367645 5.11337433 47.34861755 5.11329651 C45.51896202 5.10555458 45.51896202 5.10555458 43.65234375 5.09765625 C42.41078018 5.0962413 41.16921661 5.09482635 39.89002991 5.09336853 C36.58394509 5.08870591 33.27792854 5.07971497 29.97186279 5.06866455 C26.6003885 5.05844827 23.22890717 5.05387045 19.85742188 5.04882812 C13.23826225 5.03777395 6.61913507 5.02101736 0 5 C-0.33 4.01 -0.66 3.02 -1 2 C-0.67 1.34 -0.34 0.68 0 0 Z " fill="#FFFFFF" transform="translate(22,38)"/>
<path d="M0 0 C8.91 0 17.82 0 27 0 C27.33 1.65 27.66 3.3 28 5 C27 6 27 6 24.49975586 6.11352539 C23.41573486 6.10828857 22.33171387 6.10305176 21.21484375 6.09765625 C20.04501953 6.09443359 18.87519531 6.09121094 17.66992188 6.08789062 C16.43822266 6.07951172 15.20652344 6.07113281 13.9375 6.0625 C12.08415039 6.05573242 12.08415039 6.05573242 10.19335938 6.04882812 C7.12885883 6.03699608 4.06445279 6.02051173 1 6 C-0.0625 4.125 -0.0625 4.125 -1 2 C-0.67 1.34 -0.34 0.68 0 0 Z " fill="#FFFFFF" transform="translate(22,69)"/>
</svg>
